<svg width="32" height="32" viewBox="0 0 32 32" fill="none" xmlns="http://www.w3.org/2000/svg">
<rect width="32" height="32" rx="8" fill="#14B8A6"/>
<path d="M16 7C12.134 7 9 10.134 9 14C9 17.866 12.134 21 16 21C19.866 21 23 17.866 23 14C23 10.134 19.866 7 16 7ZM16 19C13.239 19 11 16.761 11 14C11 11.239 13.239 9 16 9C18.761 9 21 11.239 21 14C21 16.761 18.761 19 16 19Z" fill="white"/>
<path d="M16 11C14.343 11 13 12.343 13 14C13 15.657 14.343 17 16 17C17.657 17 19 15.657 19 14C19 12.343 17.657 11 16 11ZM16 15C15.448 15 15 14.552 15 14C15 13.448 15.448 13 16 13C16.552 13 17 13.448 17 14C17 14.552 16.552 15 16 15Z" fill="white"/>
<path d="M8 25C8 28.314 10.686 31 14 31H18C21.314 31 24 28.314 24 25V23H22V25C22 27.209 20.209 29 18 29H14C11.791 29 10 27.209 10 25V23H8V25Z" fill="white"/>
</svg>